<svg xmlns="http://www.w3.org/2000/svg" width="400" height="96">
  <path fill="#E80D7B" fill-rule="nonzero" d="M43.3.8c-2.2.3-5.6.9-7.7 1.5l-2.3.6a47.9 47.9 0 0 0 3.2 91.6c22.4 5.6 46-5.8 55-26.5l1-2.3a51.5 51.5 0 0 0 3-24.1A47.7 47.7 0 0 0 45.7.6l-2.5.2zm340.9 20.9H383l-1.3 3.5-1.4 3.6-2.6 1.6-2.4 1.5v4l2.1.1h2.2v10c.2 11.9.3 12.7 2.9 15.3 2.7 2.8 9.2 3.5 14.8 1.7l1.6-.6V59l.1-3.5h-.4l-2 .5c-4.2 1-6.7.3-7.4-2a59 59 0 0 1-.2-9.4V36h9.7v-3.5c0-3 0-3.5-.3-3.6a68 68 0 0 0-4.8 0H389v-7.2h-4.8M67.7 25.9l-2.3 2.5a53.5 53.5 0 0 0-6.7 7.5c.3.3 2.9-2 8.6-7.5 1.3-1.2 1.5-1.4 1.7-1.2.2.3-.1.6-2 2.6l-2.3 2.4a39 39 0 0 0-4.5 5.2c.2.3 6.9-5.6 10-8.8l.3.1c.1.2-.3.7-2.1 2.7-7.7 7.9-9 10.2-2.6 4.2l5-4.7c.8-.8 1-.9 1.2-.7.1.2-.1.5-1.2 1.7-3 3-5.4 5.6-6.5 7-3 3.5 0 1.2 6.7-5.3 2.8-2.7 3-2.6 1.1.2-1 1.5-2.2 3-3.4 4.4l-1.5 1.6c-3.7 4.2-5.2 5-8.8 5-2.3 0-2.5.1-6 4.1l-.5.7-1.1-1c-1.4-1.2-1.4-1 .9-3.1 2.3-2.2 2.6-2.7 2.6-4.7 0-3.5.9-5 4.6-8.4 4.5-4 8.8-7.2 8.8-6.5M30 27c2.1.6 4.2 1.8 6.8 3.7 3.8 3 4.5 4.5 4 8.6-.3 3.4-1.3 2.3 10.3 12.5a599.5 599.5 0 0 1 14 12.7c2.8 3 .8 6.7-2.8 5.1-1.1-.5-1.3-.7-12-12.7l-8-8.8c-3.3-3.7-3.4-3.8-5.5-3.7-5.2.2-6.2 0-8-2-8.3-9-7.6-18.4 1.2-15.5m95.3 1.6c-3.4.7-5 1.3-6.8 2.7-5.8 4.4-5.3 14.7.9 18.3 1 .6 1 .6 0 1.2-4 2.3-4.6 6.2-1.6 9l1.2.9c.4 0 0 .3-.5.5-8.7 2.8-9 13-.3 16.2 7.8 2.8 19.9 1 24.7-3.5 4.8-4.6 4.3-12.8-.8-15.8-2.3-1.4-3.6-1.6-10.4-1.7-6.3-.2-6.8-.2-7.7-1.1-.6-.7-.6-1.4 0-2.4.7-1 .9-1 2.8-.8 2.8.3 7-.4 9.4-1.4 5.6-2.5 8-8.9 5.5-14.5-.5-1-.7-.9 2.1-1.6a21 21 0 0 0 2.7-.8c.2-.2.3-4.3 0-4.6-.2-.1-1.8-.2-6.5-.2l-7-.1c-.6-.2-7-.4-7.7-.3m38.5 0c-8.7 1.3-13.6 7.8-13.6 17.6 0 9.7 5.2 16.5 13.5 17.6 2.6.4 3.3.4 5.5.2 9.2-1 14.3-7.3 14.3-17.7 0-9.2-4-15-12-17.3a38 38 0 0 0-7.8-.4m86.1 0a13 13 0 0 0-7.4 5.3c-1 1.5-1 1.5-2-2.5-.6-2.6-.2-2.4-4.1-2.3h-3.4v34.4h9.2v-9.9c.2-9.6.2-9.8.5-10.8 1.5-3.9 4.3-5.5 9.3-5.5h2.6v-1l.3-3.4.3-3.2c.1-.8 0-.8-.3-1-.5-.2-4-.2-5 0m28.1 0c-3.3.7-5.4 2-7 4-1 1.3-1 1.3-1.8-2l-.5-1.3-.1-.4H265l-3.4.1v34.4h9.1l.2-10.1c0-10 0-10.6.7-12.6C272.8 36 278 34 281 37c1.7 1.5 1.7 1.7 1.8 14.8l.1 11.5h9l.4-.1v-10c0-12 .2-13 2-15.3 2.2-2.8 7.4-2.8 9 .1 1 2 1 1.6 1 14l.1 11.3h4.5l4.6-.1c.3-.2.2-24 0-25.5-.9-6.1-4.2-9-10.6-9.3-5-.2-8.7 1.2-10.8 4.2-.6 1-1 1-1.7-.1-2-2.8-4.7-4-9.3-4.1h-3.2m74.4 0c-8.5 1.5-12.9 7.6-12.9 17.9 0 8 2.6 12.9 8.4 15.7a27 27 0 0 0 20.5-.2l.7-.3v-3.6l-.1-3.6-.8.3c-5.8 2.6-12.5 3-15.8 1a8.5 8.5 0 0 1-3.5-6.7v-.4H371v-3.7c0-9.2-3.3-14.1-10.7-16-2.7-.4-5.3-.5-8-.3m-160.8.5c-.5.3-.2 25.3.2 26.8.9 3 2.8 5.5 5 6.7 5.3 2.7 13.3 1.5 16.5-2.5 1.3-1.5 1.2-1.6 2 1.4.3.9.6 1.7.8 1.8.2.1 6.4.2 6.8 0 .4-.1.4-33.8.1-34.2-.2-.2-8.7-.3-9 0-.2 0-.3 2.6-.4 10.2 0 11.5-.1 12.2-1.7 14.6-2.2 3.4-8.2 3.6-10.1.3-1-1.6-1-1.7-1-14l-.2-11.2h-9M131 34.6c3 1.5 3.6 8.1.9 10.6-1.6 1.5-5 1.4-6.8 0-2.6-2.3-2.2-9 .7-10.6 1.3-.6 4-.6 5.2 0m227.3 1c2.1 1 3.4 2.8 3.7 5.5v1.2H349v-.4c0-1.3 1-3.9 1.9-5 1.5-1.7 5.2-2.4 7.5-1.3m-189.6.6c3.4.7 5.2 4.1 5.2 10 0 6.9-2.3 10.2-7.2 10.2-4.2 0-6.2-2.2-6.9-7.6-1.1-9 2.4-14 8.8-12.6M45 54c.5.5.9 1 1.1 1.6 0 .2-1.7 2.2-3.9 4.6-9.2 10.3-9 10.1-11 10.1-3.1 0-3.5-3.5-.8-5.9a869.9 869.9 0 0 0 12.3-11c1-.9.9-.9 2.3.7m281-.4c-2.7.6-3.9 2.2-3.9 5 0 3.5 1.8 5.2 5.3 5.3 3.6 0 5.3-1.7 5.3-5.2 0-3.9-2.7-5.9-6.8-5m-192.1 10c5.5.8 5.5 5.6 0 7.5-6.1 2-13.2.7-13.7-2.7-.7-4 5-6 13.7-4.8"/>
</svg>
